# xmcd
#
# Track frame offsets:
#	150
#	20844
#	39685
#	57538
#	68868
#	87283
#	104357
#	118200
#	138786
#
# Disc length: 2104 seconds
#
# Revision: 1
# Processed by: cddbd v1.5.2PL0 Copyright (c) Steve Scherf et al.
# Submitted via: audiograbber 1.83.01
#
DISCID=82083609
DTITLE=Walking Rain - Walking Rain
DYEAR=1900
DGENRE=
TTITLE0=Speed Of The Sound Of Loneliness
TTITLE1=Why You Been Gone So Long
TTITLE2=That´s The Way
TTITLE3=Orphan Girl
TTITLE4=Heaven Or Hell
TTITLE5=She Ain´t Going Nowhere
TTITLE6=It´s All Over Now
TTITLE7=Ever Changing Woman
TTITLE8=North Country Blues
EXTD=
EXTT0=
EXTT1=
EXTT2=
EXTT3=
EXTT4=
EXTT5=
EXTT6=
EXTT7=
EXTT8=
PLAYORDER=
